<mxfile host="Electron" modified="2024-02-24T15:35:47.141Z" agent="Mozilla/5.0 (Windows NT 10.0; Win64; x64) AppleWebKit/537.36 (KHTML, like Gecko) draw.io/23.1.5 Chrome/120.0.6099.109 Electron/28.1.0 Safari/537.36" etag="O-fmue9WEWm51-hveHuL" version="23.1.5" type="device">
  <diagram name="Страница — 1" id="Ou_y1hhKlGoCf3EL9zim">
    <mxGraphModel dx="590" dy="1044" grid="1" gridSize="10" guides="1" tooltips="1" connect="1" arrows="1" fold="1" page="1" pageScale="1" pageWidth="827" pageHeight="1169" math="0" shadow="0">
      <root>
        <mxCell id="0" />
        <mxCell id="1" parent="0" />
        <mxCell id="-cGaZFkOdF8DwOavnByC-1" value="start" style="ellipse;whiteSpace=wrap;html=1;" vertex="1" parent="1">
          <mxGeometry x="260" y="40" width="120" height="80" as="geometry" />
        </mxCell>
        <mxCell id="-cGaZFkOdF8DwOavnByC-2" value="" style="endArrow=classic;html=1;rounded=0;labelBackgroundColor=default;strokeColor=default;align=center;verticalAlign=middle;fontFamily=Helvetica;fontSize=11;fontColor=default;shape=connector;edgeStyle=orthogonalEdgeStyle;exitX=0.5;exitY=1;exitDx=0;exitDy=0;" edge="1" source="-cGaZFkOdF8DwOavnByC-1" parent="1">
          <mxGeometry width="50" height="50" relative="1" as="geometry">
            <mxPoint x="370.29" y="210" as="sourcePoint" />
            <mxPoint x="320" y="240" as="targetPoint" />
          </mxGeometry>
        </mxCell>
        <mxCell id="-cGaZFkOdF8DwOavnByC-3" style="edgeStyle=orthogonalEdgeStyle;rounded=0;orthogonalLoop=1;jettySize=auto;html=1;exitX=0;exitY=0.5;exitDx=0;exitDy=0;exitPerimeter=0;endArrow=none;endFill=0;strokeWidth=1;" edge="1" source="-cGaZFkOdF8DwOavnByC-4" parent="1">
          <mxGeometry relative="1" as="geometry">
            <mxPoint x="320" y="170" as="targetPoint" />
            <mxPoint x="380" y="170" as="sourcePoint" />
          </mxGeometry>
        </mxCell>
        <mxCell id="-cGaZFkOdF8DwOavnByC-4" value="" style="strokeWidth=2;html=1;shape=mxgraph.flowchart.annotation_1;align=left;pointerEvents=1;" vertex="1" parent="1">
          <mxGeometry x="420" y="120" width="50" height="100" as="geometry" />
        </mxCell>
        <mxCell id="-cGaZFkOdF8DwOavnByC-5" value="#include &amp;lt;iostream&amp;gt;&lt;br&gt;#include &amp;lt;clocale&amp;gt;&lt;br&gt;using namespace std;&lt;br&gt;&lt;br&gt;int main(){&lt;br&gt;&lt;span style=&quot;white-space: pre;&quot;&gt;&#x9;&lt;/span&gt;setlocale(LC_ALL, &quot;Russian&quot;);" style="text;strokeColor=none;fillColor=none;align=left;verticalAlign=middle;spacingLeft=4;spacingRight=4;overflow=hidden;points=[[0,0.5],[1,0.5]];portConstraint=eastwest;rotatable=0;whiteSpace=wrap;html=1;" vertex="1" parent="1">
          <mxGeometry x="420" y="120" width="220" height="100" as="geometry" />
        </mxCell>
        <mxCell id="-cGaZFkOdF8DwOavnByC-7" style="edgeStyle=orthogonalEdgeStyle;rounded=0;orthogonalLoop=1;jettySize=auto;html=1;exitX=0.5;exitY=1;exitDx=0;exitDy=0;" edge="1" parent="1" source="-cGaZFkOdF8DwOavnByC-6" target="-cGaZFkOdF8DwOavnByC-8">
          <mxGeometry relative="1" as="geometry">
            <mxPoint x="320" y="320" as="targetPoint" />
          </mxGeometry>
        </mxCell>
        <mxCell id="-cGaZFkOdF8DwOavnByC-6" value="string in_string, str_1, str_2;" style="rounded=1;whiteSpace=wrap;html=1;absoluteArcSize=1;arcSize=14;strokeWidth=2;" vertex="1" parent="1">
          <mxGeometry x="230" y="240" width="180" height="40" as="geometry" />
        </mxCell>
        <mxCell id="-cGaZFkOdF8DwOavnByC-9" style="edgeStyle=orthogonalEdgeStyle;rounded=0;orthogonalLoop=1;jettySize=auto;html=1;exitX=0.5;exitY=1;exitDx=0;exitDy=0;" edge="1" parent="1" source="-cGaZFkOdF8DwOavnByC-8" target="-cGaZFkOdF8DwOavnByC-10">
          <mxGeometry relative="1" as="geometry">
            <mxPoint x="320" y="400" as="targetPoint" />
          </mxGeometry>
        </mxCell>
        <mxCell id="-cGaZFkOdF8DwOavnByC-8" value="cout &amp;lt;&amp;lt; &quot;Введите два слова, &lt;br&gt;разделенных пробелом:&quot; &amp;lt;&amp;lt; endl;" style="shape=parallelogram;html=1;strokeWidth=2;perimeter=parallelogramPerimeter;whiteSpace=wrap;rounded=1;arcSize=12;size=0.09375;" vertex="1" parent="1">
          <mxGeometry x="200" y="320" width="240" height="40" as="geometry" />
        </mxCell>
        <mxCell id="-cGaZFkOdF8DwOavnByC-11" style="edgeStyle=orthogonalEdgeStyle;rounded=0;orthogonalLoop=1;jettySize=auto;html=1;exitX=0.5;exitY=1;exitDx=0;exitDy=0;" edge="1" parent="1" source="-cGaZFkOdF8DwOavnByC-10" target="-cGaZFkOdF8DwOavnByC-12">
          <mxGeometry relative="1" as="geometry">
            <mxPoint x="320" y="480" as="targetPoint" />
          </mxGeometry>
        </mxCell>
        <mxCell id="-cGaZFkOdF8DwOavnByC-10" value="getline(cin, in_string);" style="shape=parallelogram;html=1;strokeWidth=2;perimeter=parallelogramPerimeter;whiteSpace=wrap;rounded=1;arcSize=12;size=0.16666666666666666;" vertex="1" parent="1">
          <mxGeometry x="240" y="400" width="160" height="40" as="geometry" />
        </mxCell>
        <mxCell id="-cGaZFkOdF8DwOavnByC-13" style="edgeStyle=orthogonalEdgeStyle;rounded=0;orthogonalLoop=1;jettySize=auto;html=1;exitX=0.5;exitY=1;exitDx=0;exitDy=0;entryX=0.5;entryY=0;entryDx=0;entryDy=0;entryPerimeter=0;" edge="1" parent="1" source="-cGaZFkOdF8DwOavnByC-12" target="-cGaZFkOdF8DwOavnByC-16">
          <mxGeometry relative="1" as="geometry">
            <mxPoint x="320" y="560" as="targetPoint" />
          </mxGeometry>
        </mxCell>
        <mxCell id="-cGaZFkOdF8DwOavnByC-12" value="int i = 0;" style="rounded=1;whiteSpace=wrap;html=1;absoluteArcSize=1;arcSize=14;strokeWidth=2;" vertex="1" parent="1">
          <mxGeometry x="270" y="480" width="100" height="40" as="geometry" />
        </mxCell>
        <mxCell id="-cGaZFkOdF8DwOavnByC-14" style="edgeStyle=orthogonalEdgeStyle;rounded=0;orthogonalLoop=1;jettySize=auto;html=1;exitX=1;exitY=0.5;exitDx=0;exitDy=0;exitPerimeter=0;entryX=0.5;entryY=0;entryDx=0;entryDy=0;" edge="1" source="-cGaZFkOdF8DwOavnByC-16" parent="1" target="-cGaZFkOdF8DwOavnByC-22">
          <mxGeometry relative="1" as="geometry">
            <mxPoint x="460" y="660" as="targetPoint" />
            <Array as="points">
              <mxPoint x="460" y="590" />
            </Array>
          </mxGeometry>
        </mxCell>
        <mxCell id="-cGaZFkOdF8DwOavnByC-15" style="edgeStyle=orthogonalEdgeStyle;rounded=0;orthogonalLoop=1;jettySize=auto;html=1;exitX=0.5;exitY=1;exitDx=0;exitDy=0;exitPerimeter=0;entryX=0.5;entryY=0;entryDx=0;entryDy=0;" edge="1" source="-cGaZFkOdF8DwOavnByC-16" parent="1" target="-cGaZFkOdF8DwOavnByC-20">
          <mxGeometry relative="1" as="geometry">
            <mxPoint x="320" y="660" as="targetPoint" />
          </mxGeometry>
        </mxCell>
        <mxCell id="-cGaZFkOdF8DwOavnByC-16" value="while ((in_string[i] != &#39;\0&#39;) &lt;br&gt;&amp;amp;&amp;amp; (in_string[i] != 32))" style="strokeWidth=2;html=1;shape=mxgraph.flowchart.decision;whiteSpace=wrap;" vertex="1" parent="1">
          <mxGeometry x="200" y="560" width="240" height="60" as="geometry" />
        </mxCell>
        <mxCell id="-cGaZFkOdF8DwOavnByC-17" value="1" style="text;html=1;strokeColor=none;fillColor=none;align=center;verticalAlign=middle;whiteSpace=wrap;rounded=0;" vertex="1" parent="1">
          <mxGeometry x="290" y="620" width="30" height="30" as="geometry" />
        </mxCell>
        <mxCell id="-cGaZFkOdF8DwOavnByC-18" value="0" style="text;html=1;strokeColor=none;fillColor=none;align=center;verticalAlign=middle;whiteSpace=wrap;rounded=0;" vertex="1" parent="1">
          <mxGeometry x="419.28999999999996" y="560" width="30" height="30" as="geometry" />
        </mxCell>
        <mxCell id="-cGaZFkOdF8DwOavnByC-19" value="{" style="text;html=1;strokeColor=none;fillColor=none;align=center;verticalAlign=middle;whiteSpace=wrap;rounded=0;" vertex="1" parent="1">
          <mxGeometry x="320" y="620" width="30" height="30" as="geometry" />
        </mxCell>
        <mxCell id="-cGaZFkOdF8DwOavnByC-21" style="edgeStyle=orthogonalEdgeStyle;rounded=0;orthogonalLoop=1;jettySize=auto;html=1;exitX=0.5;exitY=1;exitDx=0;exitDy=0;" edge="1" parent="1" source="-cGaZFkOdF8DwOavnByC-20">
          <mxGeometry relative="1" as="geometry">
            <mxPoint x="319.5652173913044" y="540" as="targetPoint" />
            <Array as="points">
              <mxPoint x="320" y="720" />
              <mxPoint x="160" y="720" />
              <mxPoint x="160" y="540" />
            </Array>
          </mxGeometry>
        </mxCell>
        <mxCell id="-cGaZFkOdF8DwOavnByC-20" value="++i;" style="rounded=1;whiteSpace=wrap;html=1;absoluteArcSize=1;arcSize=14;strokeWidth=2;" vertex="1" parent="1">
          <mxGeometry x="270" y="660" width="100" height="40" as="geometry" />
        </mxCell>
        <mxCell id="-cGaZFkOdF8DwOavnByC-23" style="edgeStyle=orthogonalEdgeStyle;rounded=0;orthogonalLoop=1;jettySize=auto;html=1;exitX=0.5;exitY=1;exitDx=0;exitDy=0;" edge="1" parent="1" source="-cGaZFkOdF8DwOavnByC-22" target="-cGaZFkOdF8DwOavnByC-24">
          <mxGeometry relative="1" as="geometry">
            <mxPoint x="460" y="810" as="targetPoint" />
          </mxGeometry>
        </mxCell>
        <mxCell id="-cGaZFkOdF8DwOavnByC-22" value="str_1.insert(0, in_string, 0, i);" style="shape=parallelogram;html=1;strokeWidth=2;perimeter=parallelogramPerimeter;whiteSpace=wrap;rounded=1;arcSize=12;size=0.0625;" vertex="1" parent="1">
          <mxGeometry x="340" y="740" width="240" height="40" as="geometry" />
        </mxCell>
        <mxCell id="-cGaZFkOdF8DwOavnByC-25" style="edgeStyle=orthogonalEdgeStyle;rounded=0;orthogonalLoop=1;jettySize=auto;html=1;exitX=0.5;exitY=1;exitDx=0;exitDy=0;" edge="1" parent="1" source="-cGaZFkOdF8DwOavnByC-24" target="-cGaZFkOdF8DwOavnByC-26">
          <mxGeometry relative="1" as="geometry">
            <mxPoint x="460" y="860" as="targetPoint" />
          </mxGeometry>
        </mxCell>
        <mxCell id="-cGaZFkOdF8DwOavnByC-24" value="str_2.insert(0, in_string, i + 1, in_string.size() - 1);" style="shape=parallelogram;html=1;strokeWidth=2;perimeter=parallelogramPerimeter;whiteSpace=wrap;rounded=1;arcSize=12;size=0.05;" vertex="1" parent="1">
          <mxGeometry x="310" y="800" width="300" height="40" as="geometry" />
        </mxCell>
        <mxCell id="-cGaZFkOdF8DwOavnByC-27" style="edgeStyle=orthogonalEdgeStyle;rounded=0;orthogonalLoop=1;jettySize=auto;html=1;exitX=0.5;exitY=1;exitDx=0;exitDy=0;" edge="1" parent="1" source="-cGaZFkOdF8DwOavnByC-26">
          <mxGeometry relative="1" as="geometry">
            <mxPoint x="460" y="930" as="targetPoint" />
          </mxGeometry>
        </mxCell>
        <mxCell id="-cGaZFkOdF8DwOavnByC-26" value="find_overlaps(str_1, str_2);" style="shape=parallelogram;html=1;strokeWidth=2;perimeter=parallelogramPerimeter;whiteSpace=wrap;rounded=1;arcSize=12;size=0.07500000000000001;" vertex="1" parent="1">
          <mxGeometry x="370" y="860" width="180" height="40" as="geometry" />
        </mxCell>
        <mxCell id="-cGaZFkOdF8DwOavnByC-28" value="return 0;" style="ellipse;whiteSpace=wrap;html=1;" vertex="1" parent="1">
          <mxGeometry x="400" y="930" width="120" height="40" as="geometry" />
        </mxCell>
        <mxCell id="-cGaZFkOdF8DwOavnByC-30" value="}" style="text;html=1;strokeColor=none;fillColor=none;align=center;verticalAlign=middle;whiteSpace=wrap;rounded=0;" vertex="1" parent="1">
          <mxGeometry x="520" y="935" width="30" height="30" as="geometry" />
        </mxCell>
      </root>
    </mxGraphModel>
  </diagram>
</mxfile>
